<svg id="Layer_1" enable-background="new 0 0 479.798 479.798" height="512" viewBox="0 0 479.798 479.798" width="512" xmlns="http://www.w3.org/2000/svg"><path d="m159.801 132.215v-98.363c0-4.418 3.582-8 8-8h93.54c4.418 0 8 3.582 8 8v98.362c0 6.039-6.424 9.895-11.753 7.064l-31.756-16.869c-7.051-3.747-15.47-3.744-22.52-.001l-31.757 16.871c-5.337 2.831-11.754-1.032-11.754-7.064zm232.821 297.84c14.642-3.467 20.481 18.384 5.972 22.374-7.496 2.061 17.723 1.424-358.594 1.424-22.091 0-40-17.909-40-40v-348c0-22.091 17.909-40 40-40h95.801c4.418 0 8 3.582 8 8v97.834c0 18.859 19.348 30.177 35.259 21.724l31.758-16.871c2.35-1.248 5.156-1.249 7.506.001l31.757 16.869c15.87 8.432 35.26-2.803 35.26-21.798v-97.76c0-4.418 3.582-8 8-8h94.659c22.091 0 40 17.909 40 40v184.569c0 5.74-5.846 9.563-11.145 7.355-56.055-23.351-125.181-13.537-173.036 34.317l-13.586 13.587c-18.87 18.868-19.262 49.461.603 69.327l12.983 12.983c40.172 40.17 96.906 54.353 148.803 42.065zm-319.58-93.765c0 4.418 3.582 8 8 8h56.792c4.418 0 8-3.582 8-8s-3.582-8-8-8h-56.792c-4.419 0-8 3.582-8 8zm41.708 45.651c0-4.418-3.582-8-8-8h-25.708c-4.418 0-8 3.582-8 8s3.582 8 8 8h25.708c4.418 0 8-3.582 8-8zm30.303-3.864c-2.085-3.895-6.935-5.362-10.829-3.277-4.311 2.308-5.427 7.212-3.444 10.917 2.085 3.894 6.932 5.364 10.829 3.277 4.311-2.308 5.427-7.212 3.444-10.917zm325.197-14.984-13.59 13.58c-55.561 55.56-145.968 55.56-201.53 0l-13.58-13.58c-12.741-12.742-12.747-33.353 0-46.101l13.58-13.59c55.691-55.671 145.833-55.697 201.53 0l13.59 13.59c12.734 12.755 12.727 33.353 0 46.101zm-64.25-23.051c0-27.627-22.476-50.104-50.103-50.104s-50.103 22.477-50.103 50.104 22.476 50.103 50.103 50.103 50.103-22.476 50.103-50.103zm-50.103-34.104c-18.805 0-34.103 15.299-34.103 34.104s15.298 34.103 34.103 34.103 34.103-15.299 34.103-34.103-15.298-34.104-34.103-34.104z"/></svg>